<svg width="30" height="30" viewBox="0 0 30 30" fill="none" xmlns="http://www.w3.org/2000/svg">
<g clip-path="url(#clip0_1082_44443)">
<path fill-rule="evenodd" clip-rule="evenodd" d="M15 13.1144L24.7239 3.39052C25.2446 2.86983 26.0888 2.86983 26.6095 3.39052C27.1302 3.91122 27.1302 4.75544 26.6095 5.27614L16.8856 15L26.6095 24.7239C27.1302 25.2446 27.1302 26.0888 26.6095 26.6095C26.0888 27.1302 25.2446 27.1302 24.7239 26.6095L15 16.8856L5.27614 26.6095C4.75544 27.1302 3.91122 27.1302 3.39052 26.6095C2.86983 26.0888 2.86983 25.2446 3.39052 24.7239L13.1144 15L3.39052 5.27614C2.86983 4.75544 2.86983 3.91122 3.39052 3.39052C3.91122 2.86983 4.75544 2.86983 5.27614 3.39052L15 13.1144Z" fill="#232328"/>
</g>
<defs>
<clipPath id="clip0_1082_44443">
<rect width="30" height="30" fill="white"/>
</clipPath>
</defs>
</svg>
