<svg width="40" height="40" viewBox="0 0 40 40" fill="none" xmlns="http://www.w3.org/2000/svg">
<g clip-path="url(#clip0_4159_80039)">
<path fill-rule="evenodd" clip-rule="evenodd" d="M21.9999 9C21.9999 9.07909 21.9953 9.15712 21.9864 9.23381C25.5207 10.081 28.2188 13.1396 28.4792 16.9146L28.8493 22.2807C28.9265 23.4004 29.4368 24.4459 30.2721 25.1955C31.761 26.5317 30.8158 29 28.8153 29H11.1846C9.18406 29 8.23887 26.5317 9.72776 25.1955C10.563 24.4459 11.0734 23.4004 11.1506 22.2807L11.5207 16.9146C11.781 13.1396 14.4792 10.081 18.0135 9.23381C18.0045 9.15712 17.9999 9.07909 17.9999 9C17.9999 7.89543 18.8954 7 19.9999 7C21.1045 7 21.9999 7.89543 21.9999 9ZM13.516 17.0522C13.751 13.6443 16.584 11 19.9999 11C23.4159 11 26.2489 13.6443 26.4839 17.0522L26.854 22.4183C26.967 24.0569 27.7139 25.587 28.9363 26.684C28.979 26.7223 28.9907 26.7534 28.9955 26.7757C29.0015 26.8041 29.0002 26.8425 28.9845 26.8836C28.9687 26.9247 28.944 26.9542 28.9206 26.9713C28.9021 26.9847 28.8726 27 28.8153 27H11.1846C11.1273 27 11.0978 26.9847 11.0793 26.9713C11.0558 26.9542 11.0311 26.9247 11.0154 26.8836C10.9996 26.8425 10.9983 26.8041 11.0044 26.7757C11.0092 26.7534 11.0209 26.7223 11.0636 26.684C12.286 25.587 13.0329 24.0569 13.1459 22.4183L13.516 17.0522ZM17.9999 30C17.4476 30 16.9999 30.4477 16.9999 31C16.9999 31.5523 17.4476 32 17.9999 32H21.9999C22.5522 32 22.9999 31.5523 22.9999 31C22.9999 30.4477 22.5522 30 21.9999 30H17.9999Z" fill="#232328"/>
</g>
<defs>
<clipPath id="clip0_4159_80039">
<rect width="40" height="40" fill="white"/>
</clipPath>
</defs>
</svg>
