<svg width="30" height="30" viewBox="0 0 30 30" fill="none" xmlns="http://www.w3.org/2000/svg">
<g clip-path="url(#clip0_913_67494)">
<path fill-rule="evenodd" clip-rule="evenodd" d="M27.2726 15.4878C24.0845 9.78274 20.0649 7 15.1456 7C10.3685 7 6.43997 9.62405 3.29729 15C6.43997 20.3759 10.3685 23 15.1456 23C18.9532 23 22.2038 21.3398 24.9611 17.9591C25.3102 17.5311 25.9401 17.4671 26.3681 17.8162C26.7961 18.1653 26.8601 18.7952 26.511 19.2232C23.3864 23.0542 19.5766 25 15.1456 25C9.43753 25 4.79037 21.7827 1.27261 15.4878L1 15L1.27261 14.5122C4.79037 8.21726 9.43753 5 15.1456 5C20.8536 5 25.5007 8.21726 29.0185 14.5122C29.2879 14.9943 29.1155 15.6035 28.6334 15.8729C28.1513 16.1424 27.542 15.9699 27.2726 15.4878ZM15.1456 20C17.907 20 20.1455 17.7614 20.1455 15C20.1455 12.2386 17.907 10 15.1456 10C12.3841 10 10.1456 12.2386 10.1456 15C10.1456 17.7614 12.3841 20 15.1456 20ZM15.1456 18C13.4887 18 12.1456 16.6569 12.1456 15C12.1456 13.3431 13.4887 12 15.1456 12C16.8024 12 18.1455 13.3431 18.1455 15C18.1455 16.6569 16.8024 18 15.1456 18Z" fill="#232328"/>
</g>
<defs>
<clipPath id="clip0_913_67494">
<rect width="30" height="30" fill="white"/>
</clipPath>
</defs>
</svg>
