<svg width="20" height="20" viewBox="0 0 20 20" fill="none" xmlns="http://www.w3.org/2000/svg">
<g clip-path="url(#clip0_4159_80041)">
<path fill-rule="evenodd" clip-rule="evenodd" d="M11.9999 2C11.9999 2.09549 11.9932 2.18941 11.9803 2.28133C14.689 3.07004 16.7487 5.43759 17.0422 8.37314L17.3269 11.22C17.4128 12.0785 17.7915 12.8813 18.3996 13.4934C19.6887 14.7912 18.7695 16.9999 16.9403 16.9999H3.0596C1.23036 16.9999 0.311143 14.7912 1.60027 13.4934C2.20831 12.8813 2.58709 12.0785 2.67294 11.22L2.95762 8.37314C3.25118 5.43759 5.31081 3.07004 8.01956 2.28133C8.00662 2.18941 7.99993 2.09549 7.99993 2C7.99993 0.89543 8.89536 0 9.99993 0C11.1045 0 11.9999 0.89543 11.9999 2ZM9.99993 4L9.98641 3.99996C7.38385 4.00677 5.2068 5.98104 4.9477 8.57215L4.66301 11.419C4.53145 12.7346 3.95099 13.9648 3.0192 14.9029C3.00798 14.9142 3.00409 14.9213 3.00304 14.9233C3.00237 14.9246 3.00192 14.9257 3.00159 14.9268L3.001 14.9293C3.00014 14.9343 2.9998 14.9475 3.00703 14.9649C3.01426 14.9823 3.02384 14.9913 3.02801 14.9942C3.02967 14.9954 3.03122 14.9962 3.03369 14.997C3.03588 14.9977 3.04367 14.9999 3.0596 14.9999H16.9403C16.9562 14.9999 16.964 14.9977 16.9662 14.997C16.9675 14.9966 16.9685 14.9961 16.9695 14.9957L16.9718 14.9942C16.976 14.9913 16.9856 14.9822 16.9928 14.9649C17.0001 14.9475 16.9997 14.9343 16.9989 14.9293C16.9987 14.9282 16.9984 14.9273 16.9981 14.9262C16.9978 14.9253 16.9974 14.9244 16.9968 14.9233C16.9958 14.9213 16.9919 14.9142 16.9807 14.9029C16.0489 13.9648 15.4684 12.7346 15.3368 11.419L15.0522 8.57215C14.793 5.98104 12.616 4.00677 10.0134 3.99996L9.99993 4ZM8.49993 18C7.94764 18 7.49993 18.4477 7.49993 19C7.49993 19.5523 7.94764 20 8.49993 20H11.4999C12.0522 20 12.4999 19.5523 12.4999 19C12.4999 18.4477 12.0522 18 11.4999 18H8.49993Z" fill="#232328"/>
</g>
<defs>
<clipPath id="clip0_4159_80041">
<rect width="20" height="20" fill="white"/>
</clipPath>
</defs>
</svg>
