<svg width="30" height="30" viewBox="0 0 30 30" fill="none" xmlns="http://www.w3.org/2000/svg">
<g clip-path="url(#clip0_4159_80043)">
<path fill-rule="evenodd" clip-rule="evenodd" d="M16.9999 4C16.9999 4.07909 16.9953 4.15712 16.9864 4.23381C20.5207 5.08099 23.2188 8.13958 23.4792 11.9146L23.8493 17.2807C23.9265 18.4004 24.4368 19.4459 25.2721 20.1955C26.761 21.5317 25.8158 24 23.8153 24H6.1846C4.18406 24 3.23887 21.5317 4.72776 20.1955C5.56302 19.4459 6.0734 18.4004 6.15061 17.2807L6.52069 11.9146C6.78104 8.13957 9.47917 5.08099 13.0135 4.23381C13.0045 4.15712 12.9999 4.07909 12.9999 4C12.9999 2.89543 13.8954 2 14.9999 2C16.1045 2 16.9999 2.89543 16.9999 4ZM8.51595 12.0522C8.75098 8.64434 11.584 6 14.9999 6C18.4159 6 21.2489 8.64435 21.4839 12.0522L21.854 17.4183C21.967 19.0569 22.7139 20.587 23.9363 21.684C23.979 21.7223 23.9907 21.7534 23.9955 21.7757C24.0015 21.8041 24.0002 21.8425 23.9845 21.8836C23.9687 21.9247 23.944 21.9542 23.9206 21.9713C23.9021 21.9847 23.8726 22 23.8153 22H6.1846C6.12727 22 6.09776 21.9847 6.07931 21.9713C6.05584 21.9542 6.03115 21.9247 6.01539 21.8836C5.99964 21.8425 5.99835 21.8041 6.00441 21.7757C6.00917 21.7534 6.02091 21.7223 6.06358 21.684C7.28596 20.587 8.03287 19.0569 8.14588 17.4183L8.51595 12.0522ZM12.9999 25C12.4477 25 11.9999 25.4477 11.9999 26C11.9999 26.5523 12.4477 27 12.9999 27H16.9999C17.5522 27 17.9999 26.5523 17.9999 26C17.9999 25.4477 17.5522 25 16.9999 25H12.9999Z" fill="#232328"/>
</g>
<defs>
<clipPath id="clip0_4159_80043">
<rect width="30" height="30" fill="white"/>
</clipPath>
</defs>
</svg>
