<svg width="120" height="120" viewBox="0 0 120 120" fill="none" xmlns="http://www.w3.org/2000/svg">
<g opacity="0.1">
<path d="M59.9495 83.9927C58.0297 83.9927 56.1215 83.4659 54.4815 82.4123L20.6438 60.2757C18.623 58.951 18.0595 56.2474 19.3847 54.2293C20.7138 52.2113 23.4264 51.6535 25.4511 52.9743L59.2577 75.0916C59.6153 75.3201 60.3342 75.3162 60.7112 75.0683L92.6796 53.0363C94.6655 51.6651 97.3975 52.1571 98.7732 54.1441C100.149 56.1273 99.6515 58.8465 97.6657 60.2176L65.6351 82.2923C63.9251 83.4272 61.9354 83.9927 59.9495 83.9927Z" fill="black"/>
<path d="M98.1009 120H21.8991C9.82447 120 0 110.208 0 98.1733V51.3049C0 50.2397 0.128247 49.1474 0.38474 48.0551C1.16976 44.6659 3.19451 41.5865 6.23745 39.1617L51.7961 2.88328C56.6267 -0.963029 63.3733 -0.959156 68.2039 2.88328L113.739 39.1617C113.739 39.1617 113.739 39.1617 113.743 39.1617C116.79 41.5904 118.819 44.6775 119.615 48.09C119.868 49.1668 120 50.2513 120 51.301V98.1694C120 110.208 110.176 120 98.1009 120ZM60 8.74376C59.0323 8.74376 58.0685 9.06526 57.2641 9.70437L11.7054 45.9828C10.2442 47.1487 9.25319 48.5858 8.91897 50.0267C8.81016 50.4799 8.75964 50.9059 8.75964 51.3049V98.1733C8.75964 105.393 14.6551 111.269 21.8991 111.269H98.1009C105.345 111.269 111.24 105.393 111.24 98.1733V51.3049C111.24 50.9292 111.19 50.5186 111.085 50.0848C110.739 48.6129 109.74 47.1565 108.263 45.9828L62.732 9.70824C61.9276 9.06526 60.9638 8.74376 60 8.74376Z" fill="black"/>
</g>
</svg>
