<svg width="42" height="32" viewBox="0 0 42 32" fill="none" xmlns="http://www.w3.org/2000/svg">
<path fill-rule="evenodd" clip-rule="evenodd" d="M3.99658 4.39848C3.3039 5.14064 3 6.20647 3 7.5V15.5718C4.69931 13.9769 6.98558 13 9.5 13C13.2895 13 16.5608 15.2188 18.0856 18.4282C18.9997 17.9701 20.0262 17.7632 21 17.7632C21.9739 17.7632 23.0003 17.9701 23.9144 18.4282C25.4392 15.2188 28.7105 13 32.5 13C35.0144 13 37.3007 13.9769 39 15.5718V7.5C39 6.20647 38.6961 5.14064 38.0034 4.39848C37.3289 3.67581 36.0413 3 33.5 3C32.6716 3 32 2.32843 32 1.5C32 0.671573 32.6716 0 33.5 0C36.5587 0 38.7711 0.824191 40.1966 2.35152C41.6039 3.85936 42 5.79353 42 7.5V22.5V23.5H41.948C41.4483 28.2767 37.409 32 32.5 32C27.2533 32 23 27.7467 23 22.5C23 22.1397 23.0201 21.7841 23.0591 21.4342C22.5956 21.0308 21.8522 20.7632 21.0001 20.7632C20.1479 20.7632 19.4044 21.0309 18.9409 21.4343C18.9799 21.7841 19 22.1397 19 22.5C19 27.7467 14.7467 32 9.5 32C4.59103 32 0.551701 28.2767 0.0520039 23.5H0V22.5V7.5C0 5.79353 0.396101 3.85936 1.80342 2.35152C3.22893 0.824191 5.44126 0 8.5 0C9.32843 0 10 0.671573 10 1.5C10 2.32843 9.32843 3 8.5 3C5.95874 3 4.67107 3.67581 3.99658 4.39848ZM3 22.5C3 26.0899 5.91015 29 9.5 29C13.0899 29 16 26.0899 16 22.5C16 18.9101 13.0899 16 9.5 16C5.91015 16 3 18.9101 3 22.5ZM32.5 16C36.0899 16 39 18.9101 39 22.5C39 26.0899 36.0899 29 32.5 29C28.9101 29 26 26.0899 26 22.5C26 18.9101 28.9101 16 32.5 16ZM31.0173 21.3765C30.6403 21.9 30.5 22.5734 30.5 23C30.5 23.8284 29.8284 24.5 29 24.5C28.1716 24.5 27.5 23.8284 27.5 23C27.5 22.0933 27.7597 20.7666 28.5827 19.6235C29.4608 18.404 30.9111 17.5 33 17.5C33.8284 17.5 34.5 18.1716 34.5 19C34.5 19.8284 33.8284 20.5 33 20.5C31.8889 20.5 31.3392 20.9294 31.0173 21.3765ZM7.5 23C7.5 22.5734 7.64033 21.9 8.0173 21.3765C8.33921 20.9294 8.88888 20.5 10 20.5C10.8284 20.5 11.5 19.8284 11.5 19C11.5 18.1716 10.8284 17.5 10 17.5C7.91112 17.5 6.46079 18.404 5.5827 19.6235C4.75967 20.7666 4.5 22.0933 4.5 23C4.5 23.8284 5.17157 24.5 6 24.5C6.82843 24.5 7.5 23.8284 7.5 23Z" fill="black"/>
</svg>
