<svg width="70" height="70" viewBox="0 0 70 70" fill="none" xmlns="http://www.w3.org/2000/svg">
<g opacity="0.3">
<rect width="70" height="70" rx="35" fill="#2E2F38"/>
<path d="M16.83 39.5C16.7273 39.5 16.6433 39.4673 16.578 39.402C16.5127 39.3273 16.48 39.2433 16.48 39.15V30.05C16.48 29.9473 16.5127 29.8633 16.578 29.798C16.6433 29.7327 16.7273 29.7 16.83 29.7H18.678C18.7807 29.7 18.8647 29.7327 18.93 29.798C18.9953 29.8633 19.028 29.9473 19.028 30.05V37.386H23.27C23.3727 37.386 23.4567 37.4233 23.522 37.498C23.5873 37.5633 23.62 37.6473 23.62 37.75V39.15C23.62 39.2433 23.5873 39.3273 23.522 39.402C23.4567 39.4673 23.3727 39.5 23.27 39.5H16.83ZM28.7281 39.64C27.8695 39.64 27.1228 39.5 26.4881 39.22C25.8535 38.94 25.3588 38.52 25.0041 37.96C24.6495 37.3907 24.4535 36.6813 24.4161 35.832C24.4068 35.4307 24.4021 35.0293 24.4021 34.628C24.4021 34.2173 24.4068 33.8113 24.4161 33.41C24.4535 32.57 24.6495 31.8653 25.0041 31.296C25.3681 30.7173 25.8675 30.2833 26.5021 29.994C27.1461 29.7047 27.8881 29.56 28.7281 29.56C29.5775 29.56 30.3195 29.7047 30.9541 29.994C31.5888 30.2833 32.0881 30.7173 32.4521 31.296C32.8161 31.8653 33.0121 32.57 33.0401 33.41C33.0588 33.8113 33.0681 34.2173 33.0681 34.628C33.0681 35.0293 33.0588 35.4307 33.0401 35.832C33.0121 36.6813 32.8161 37.3907 32.4521 37.96C32.0975 38.52 31.6028 38.94 30.9681 39.22C30.3335 39.5 29.5868 39.64 28.7281 39.64ZM28.7281 37.624C29.2228 37.624 29.6241 37.4747 29.9321 37.176C30.2495 36.8773 30.4175 36.4013 30.4361 35.748C30.4548 35.3373 30.4641 34.95 30.4641 34.586C30.4641 34.222 30.4548 33.844 30.4361 33.452C30.4175 33.0133 30.3335 32.6587 30.1841 32.388C30.0441 32.108 29.8481 31.9027 29.5961 31.772C29.3441 31.6413 29.0548 31.576 28.7281 31.576C28.4108 31.576 28.1261 31.6413 27.8741 31.772C27.6221 31.9027 27.4215 32.108 27.2721 32.388C27.1228 32.6587 27.0388 33.0133 27.0201 33.452C27.0108 33.844 27.0061 34.222 27.0061 34.586C27.0061 34.95 27.0108 35.3373 27.0201 35.748C27.0481 36.4013 27.2161 36.8773 27.5241 37.176C27.8415 37.4747 28.2428 37.624 28.7281 37.624ZM38.7369 39.64C37.8503 39.64 37.0849 39.4953 36.4409 39.206C35.8063 38.9073 35.3116 38.478 34.9569 37.918C34.6116 37.3487 34.4203 36.658 34.3829 35.846C34.3736 35.4447 34.3689 35.02 34.3689 34.572C34.3689 34.1147 34.3736 33.6807 34.3829 33.27C34.4203 32.4767 34.6163 31.8047 34.9709 31.254C35.3256 30.7033 35.8249 30.2833 36.4689 29.994C37.1129 29.7047 37.8689 29.56 38.7369 29.56C39.4369 29.56 40.0576 29.6487 40.5989 29.826C41.1403 29.994 41.5929 30.2227 41.9569 30.512C42.3303 30.8013 42.6149 31.1187 42.8109 31.464C43.0069 31.8093 43.1096 32.15 43.1189 32.486C43.1189 32.57 43.0863 32.64 43.0209 32.696C42.9649 32.752 42.8949 32.78 42.8109 32.78H40.7669C40.6643 32.78 40.5849 32.766 40.5289 32.738C40.4823 32.7007 40.4403 32.6493 40.4029 32.584C40.3376 32.444 40.2396 32.2993 40.1089 32.15C39.9876 31.9913 39.8149 31.856 39.5909 31.744C39.3763 31.632 39.0916 31.576 38.7369 31.576C38.2143 31.576 37.7989 31.716 37.4909 31.996C37.1829 32.276 37.0149 32.724 36.9869 33.34C36.9589 34.1427 36.9589 34.9547 36.9869 35.776C37.0149 36.4293 37.1876 36.9007 37.5049 37.19C37.8223 37.4793 38.2469 37.624 38.7789 37.624C39.1243 37.624 39.4323 37.5633 39.7029 37.442C39.9829 37.3207 40.2023 37.134 40.3609 36.882C40.5196 36.6207 40.5989 36.2893 40.5989 35.888V35.622H39.2829C39.1803 35.622 39.0963 35.5893 39.0309 35.524C38.9656 35.4493 38.9329 35.3607 38.9329 35.258V34.222C38.9329 34.1193 38.9656 34.0353 39.0309 33.97C39.0963 33.8953 39.1803 33.858 39.2829 33.858H42.8109C42.9136 33.858 42.9976 33.8953 43.0629 33.97C43.1283 34.0353 43.1609 34.1193 43.1609 34.222V35.818C43.1609 36.6207 42.9789 37.3067 42.6149 37.876C42.2509 38.4453 41.7329 38.884 41.0609 39.192C40.3983 39.4907 39.6236 39.64 38.7369 39.64ZM48.7711 39.64C47.9124 39.64 47.1658 39.5 46.5311 39.22C45.8964 38.94 45.4018 38.52 45.0471 37.96C44.6924 37.3907 44.4964 36.6813 44.4591 35.832C44.4498 35.4307 44.4451 35.0293 44.4451 34.628C44.4451 34.2173 44.4498 33.8113 44.4591 33.41C44.4964 32.57 44.6924 31.8653 45.0471 31.296C45.4111 30.7173 45.9104 30.2833 46.5451 29.994C47.1891 29.7047 47.9311 29.56 48.7711 29.56C49.6204 29.56 50.3624 29.7047 50.9971 29.994C51.6318 30.2833 52.1311 30.7173 52.4951 31.296C52.8591 31.8653 53.0551 32.57 53.0831 33.41C53.1018 33.8113 53.1111 34.2173 53.1111 34.628C53.1111 35.0293 53.1018 35.4307 53.0831 35.832C53.0551 36.6813 52.8591 37.3907 52.4951 37.96C52.1404 38.52 51.6458 38.94 51.0111 39.22C50.3764 39.5 49.6298 39.64 48.7711 39.64ZM48.7711 37.624C49.2658 37.624 49.6671 37.4747 49.9751 37.176C50.2924 36.8773 50.4604 36.4013 50.4791 35.748C50.4978 35.3373 50.5071 34.95 50.5071 34.586C50.5071 34.222 50.4978 33.844 50.4791 33.452C50.4604 33.0133 50.3764 32.6587 50.2271 32.388C50.0871 32.108 49.8911 31.9027 49.6391 31.772C49.3871 31.6413 49.0978 31.576 48.7711 31.576C48.4538 31.576 48.1691 31.6413 47.9171 31.772C47.6651 31.9027 47.4644 32.108 47.3151 32.388C47.1658 32.6587 47.0818 33.0133 47.0631 33.452C47.0538 33.844 47.0491 34.222 47.0491 34.586C47.0491 34.95 47.0538 35.3373 47.0631 35.748C47.0911 36.4013 47.2591 36.8773 47.5671 37.176C47.8844 37.4747 48.2858 37.624 48.7711 37.624Z" fill="white"/>
</g>
</svg>
