<svg width="30" height="20" viewBox="0 0 30 20" fill="none" xmlns="http://www.w3.org/2000/svg">
<path fill-rule="evenodd" clip-rule="evenodd" d="M8.99233 5.48673C10.195 4.739 11.5647 4.30212 12.9782 4.21542V0C9.49148 0.265832 6.20295 1.72554 3.66686 4.13311C2.51543 5.17702 1.59505 6.45021 0.964848 7.87091C0.334643 9.29161 0.00853934 10.8284 0.00747974 12.3826C-0.0812445 14.4031 0.622171 16.3784 1.96798 17.8881C2.62224 18.5861 3.41879 19.1354 4.30374 19.499C5.18869 19.8625 6.1414 20.0317 7.0974 19.9951C7.93337 20.0225 8.76633 19.8818 9.54688 19.5812C10.3274 19.2806 11.0397 18.8264 11.6414 18.2454C12.2345 17.6678 12.7006 16.9729 13.0101 16.205C13.3195 15.4371 13.4655 14.6132 13.4386 13.7857C13.4729 13.0594 13.3636 12.3335 13.1168 11.6495C12.8701 10.9655 12.4908 10.337 12.0007 9.79984C11.5045 9.29533 10.9077 8.90082 10.2492 8.64191C9.5906 8.383 8.88495 8.2655 8.17802 8.29701C7.80608 8.306 7.43509 8.33862 7.0673 8.3947C7.01393 8.41034 6.9593 8.42131 6.90403 8.42748C7.24788 7.23944 7.98397 6.20288 8.99233 5.48673ZM25.2591 5.48673C26.4618 4.739 27.8315 4.30212 29.245 4.21542V0C25.7583 0.265832 22.4697 1.72554 19.9337 4.13311C18.7822 5.17702 17.8618 6.45021 17.2316 7.87091C16.6014 9.29161 16.2753 10.8284 16.2743 12.3826C16.1855 14.4031 16.889 16.3784 18.2348 17.8881C18.889 18.5861 19.6856 19.1354 20.5705 19.499C21.4555 19.8625 22.4082 20.0317 23.3642 19.9951C24.1996 20.0224 25.0319 19.8818 25.812 19.5816C26.5921 19.2814 27.3039 18.8277 27.9055 18.2474C28.4986 17.6698 28.9647 16.9749 29.2742 16.207C29.5836 15.4391 29.7296 14.6152 29.7027 13.7877C29.737 13.0614 29.6277 12.3355 29.381 11.6515C29.1342 10.9675 28.7549 10.339 28.2648 9.80184C27.7686 9.29733 27.1718 8.90283 26.5133 8.64392C25.8547 8.38501 25.1491 8.2675 24.4421 8.29901C24.0702 8.308 23.6992 8.34063 23.3314 8.39671C23.278 8.41235 23.2234 8.42332 23.1681 8.42949C23.5114 7.24081 24.2473 6.2035 25.2558 5.48673H25.2591Z" fill="#3CACFE" fill-opacity="0.3"/>
</svg>
