<svg width="30" height="30" viewBox="0 0 30 30" fill="none" xmlns="http://www.w3.org/2000/svg">
<g clip-path="url(#clip0_915_37562)">
<path d="M4.88889 17.7778C6.48438 17.7778 7.77778 16.4844 7.77778 14.8889C7.77778 13.2934 6.48438 12 4.88889 12C3.2934 12 2 13.2934 2 14.8889C2 16.4844 3.2934 17.7778 4.88889 17.7778Z" fill="#232328"/>
<path d="M15 17.7778C16.5955 17.7778 17.8889 16.4844 17.8889 14.8889C17.8889 13.2934 16.5955 12 15 12C13.4045 12 12.1111 13.2934 12.1111 14.8889C12.1111 16.4844 13.4045 17.7778 15 17.7778Z" fill="#232328"/>
<path d="M28 14.8889C28 16.4844 26.7066 17.7778 25.1111 17.7778C23.5156 17.7778 22.2222 16.4844 22.2222 14.8889C22.2222 13.2934 23.5156 12 25.1111 12C26.7066 12 28 13.2934 28 14.8889Z" fill="#232328"/>
</g>
<defs>
<clipPath id="clip0_915_37562">
<rect width="30" height="30" fill="white"/>
</clipPath>
</defs>
</svg>
