<svg width="20" height="20" viewBox="0 0 20 20" fill="none" xmlns="http://www.w3.org/2000/svg">
<g clip-path="url(#clip0_915_37692)">
<path fill-rule="evenodd" clip-rule="evenodd" d="M14.0012 3.603C14.0521 3.25576 14.3531 2.99654 14.709 3.00004L14.7188 3.00013L17.2807 3.00008C17.4547 3.00025 17.7253 3.00028 17.9994 3.00026C18.0015 3.33556 17.9974 3.62218 17.9855 3.76139C17.7207 6.23663 16.8762 8.61515 15.5199 10.7047L15.5151 10.712C14.2827 12.6477 12.6383 14.2891 10.6985 15.5193L10.6906 15.5243C8.60654 16.8732 6.23475 17.7161 3.7653 17.9855C3.62411 17.9975 3.33592 18.0016 3.00008 17.9994C3.00013 17.723 3.00039 17.4522 3.00109 17.28L3.0011 17.2759V14.7061L3.0008 14.6937C2.99197 14.3387 3.25049 14.0306 3.60617 13.9788C4.49891 13.8609 5.37548 13.6427 6.21923 13.3285L6.22148 13.3277C6.48041 13.2305 6.77192 13.2925 6.9684 13.4852L7.51228 14.028C8.1391 14.6536 9.14766 14.8206 9.94909 14.3048C11.7022 13.1767 13.1942 11.688 14.3252 9.93834C14.8443 9.13536 14.6764 8.12316 14.0477 7.49575L13.5059 6.95491C13.3131 6.75914 13.2521 6.47022 13.3485 6.21412L13.3494 6.21187C13.6643 5.36951 13.883 4.49435 14.0012 3.603ZM14.7232 1.00008C13.3678 0.989461 12.2108 1.98216 12.0205 3.32607L12.0191 3.33528C11.9209 4.07877 11.7387 4.80881 11.476 5.51146L11.4769 5.5092C11.1043 6.49847 11.3428 7.6134 12.0867 8.36415L12.0906 8.36813L12.6182 8.8947C11.6542 10.3731 10.3905 11.634 8.90861 12.596L8.37485 12.0632C7.62324 11.3215 6.50872 11.0843 5.52013 11.4547C4.81612 11.7168 4.08465 11.8986 3.33966 11.9967L3.33074 11.9978C1.97503 12.1887 0.973974 13.3609 1.0011 14.7296V17.2737C1.00038 17.4531 1.00012 17.7325 1.00008 18.0125C0.999916 19.0871 1.85755 19.9912 2.96125 19.9992C3.29861 20.0017 3.69882 19.9997 3.9529 19.9768L3.96189 19.9759L3.97088 19.975C6.75277 19.6733 9.42515 18.7249 11.7735 17.2058C13.9581 15.8195 15.8107 13.9706 17.1999 11.7899C18.7275 9.43506 19.6783 6.75419 19.9752 3.96422L19.976 3.95641L19.9767 3.94859C19.9996 3.69594 20.0016 3.29796 19.9992 2.96232C19.9913 1.85683 19.085 1.00016 18.011 1.00026C17.7325 1.00028 17.4574 1.00025 17.2821 1.00008L14.7232 1.00008ZM2.70709 1.29289C2.31656 0.90237 1.6834 0.90237 1.29287 1.29289C0.902348 1.68342 0.902348 2.31658 1.29287 2.70711L4.58577 6H3.66665C3.11436 6 2.66665 6.44772 2.66665 7C2.66665 7.55229 3.11436 8 3.66665 8H6.99998C7.55226 8 7.99998 7.55229 7.99998 7V3.66667C7.99998 3.11438 7.55226 2.66667 6.99998 2.66667C6.44769 2.66667 5.99998 3.11438 5.99998 3.66667V4.58579L2.70709 1.29289Z" fill="#232328"/>
</g>
<defs>
<clipPath id="clip0_915_37692">
<rect width="20" height="20" fill="white"/>
</clipPath>
</defs>
</svg>
