<svg width="30" height="30" viewBox="0 0 30 30" fill="none" xmlns="http://www.w3.org/2000/svg">
<g clip-path="url(#clip0_915_37691)">
<path d="M5.7071 4.29289C5.31658 3.90237 4.68341 3.90237 4.29289 4.29289C3.90237 4.68342 3.90237 5.31658 4.29289 5.70711L9.58578 11H6C5.44771 11 5 11.4477 5 12C5 12.5523 5.44771 13 6 13H11.9993L12.003 13C12.2746 12.9992 12.5208 12.8901 12.7005 12.7136L12.7136 12.7005C12.8063 12.6062 12.8764 12.498 12.9241 12.3828C12.9726 12.2657 12.9996 12.1375 13 12.003L13 12V6C13 5.44772 12.5523 5 12 5C11.4477 5 11 5.44772 11 6V9.58579L5.7071 4.29289Z" fill="#232328"/>
<path fill-rule="evenodd" clip-rule="evenodd" d="M5.00064 23.9806C4.99719 24.8278 5.35171 25.637 5.97687 26.2094C6.60159 26.7814 7.43869 27.0639 8.30063 26.986C11.5502 26.6336 14.6718 25.5254 17.4067 23.7553C19.9603 22.1358 22.1254 19.975 23.7434 17.4336C25.5285 14.6835 26.6395 11.5523 26.9878 8.27813C27.0639 7.43695 26.7824 6.60265 26.2121 5.97915C25.6422 5.35608 24.8365 5.00089 23.9907 5.0001L20.9837 5.00015C19.4728 4.98531 18.1843 6.09121 17.9713 7.59528C17.8539 8.4839 17.6361 9.35642 17.323 10.1939C16.9089 11.2934 17.1738 12.533 18.0049 13.3718L18.7275 14.093C17.5437 15.947 15.9671 17.52 14.109 18.7012L13.3802 17.9739C12.5444 17.149 11.3046 16.8851 10.207 17.2969C9.36518 17.6104 8.49054 17.8278 7.59083 17.9463C6.0816 18.1588 4.96962 19.4639 5.00062 20.985L5.00064 23.9806ZM7.00063 20.9738L7.00032 20.949C6.98762 20.4382 7.36103 19.9984 7.86075 19.928C8.90083 19.7911 9.92205 19.5372 10.9072 19.1703C11.2773 19.0314 11.6945 19.1203 11.9714 19.3934L13.2485 20.668C13.5666 20.9855 14.0575 21.0518 14.4484 20.8299C17.1225 19.3124 19.3367 17.1026 20.8573 14.4336C21.0805 14.0419 21.014 13.5493 20.6948 13.2308L19.4217 11.9602C19.1447 11.6807 19.0562 11.2664 19.1955 10.8966C19.5624 9.91533 19.8169 8.89573 19.9528 7.86652C20.0237 7.36615 20.4561 6.99506 20.9739 7.0001L23.9898 7.0001C24.274 7.00037 24.545 7.1198 24.7363 7.32898C24.9272 7.53773 25.0214 7.81666 24.9974 8.08214C24.684 11.0278 23.6797 13.8585 22.0611 16.3521C20.5961 18.6531 18.6413 20.604 16.3278 22.0713C13.8474 23.6766 11.0241 24.6789 8.10299 24.9959C7.81895 25.0215 7.53734 24.9265 7.32747 24.7343C7.11805 24.5425 6.99947 24.2719 7.00063 23.9846V20.9738Z" fill="#232328"/>
</g>
<defs>
<clipPath id="clip0_915_37691">
<rect width="30" height="30" fill="white"/>
</clipPath>
</defs>
</svg>
